<svg width="26" height="26" viewBox="0 0 26 26" fill="none" xmlns="http://www.w3.org/2000/svg">
<g clip-path="url(#clip0_334_5790)">
<rect width="25.2698" height="25.2698" rx="12.6349" fill="white"/>
<path opacity="0.2" d="M12.6349 25.2698C19.613 25.2698 25.2698 19.613 25.2698 12.6349C25.2698 5.65685 19.613 0 12.6349 0C5.65685 0 0 5.65685 0 12.6349C0 19.613 5.65685 25.2698 12.6349 25.2698Z" fill="#ED785E"/>
<path d="M6.61816 18.8827C6.63441 17.2977 7.27543 15.7832 8.40197 14.6681C9.5285 13.5531 11.0495 12.9276 12.6346 12.9276C14.2197 12.9276 15.7407 13.5531 16.8672 14.6681C17.9938 15.7832 18.6348 17.2977 18.651 18.8827H6.61816Z" fill="#ED785E"/>
<path d="M16.1449 8.35275C16.1449 6.41425 14.5734 4.84277 12.6349 4.84277C10.6964 4.84277 9.12493 6.41425 9.12493 8.35275C9.12493 10.2913 10.6964 11.8627 12.6349 11.8627C14.5734 11.8627 16.1449 10.2913 16.1449 8.35275Z" fill="#ED785E"/>
</g>
<defs>
<clipPath id="clip0_334_5790">
<rect width="25.2698" height="25.2698" rx="12.6349" fill="white"/>
</clipPath>
</defs>
</svg>
