<svg width="25" height="24" viewBox="0 0 25 24" fill="none" xmlns="http://www.w3.org/2000/svg">
<path d="M7.63965 6V6.75C7.89041 6.75 8.12459 6.62467 8.26369 6.41603L7.63965 6ZM9.04592 3.8906L8.42188 3.47457V3.47457L9.04592 3.8906ZM16.2334 3.8906L16.8574 3.47457L16.2334 3.8906ZM17.6396 6L17.0156 6.41603C17.1547 6.62467 17.3889 6.75 17.6396 6.75V6ZM14.8896 13.5C14.8896 14.7426 13.8823 15.75 12.6396 15.75V17.25C14.7107 17.25 16.3896 15.5711 16.3896 13.5H14.8896ZM12.6396 15.75C11.397 15.75 10.3896 14.7426 10.3896 13.5H8.88965C8.88965 15.5711 10.5686 17.25 12.6396 17.25V15.75ZM10.3896 13.5C10.3896 12.2574 11.397 11.25 12.6396 11.25V9.75C10.5686 9.75 8.88965 11.4289 8.88965 13.5H10.3896ZM12.6396 11.25C13.8823 11.25 14.8896 12.2574 14.8896 13.5H16.3896C16.3896 11.4289 14.7107 9.75 12.6396 9.75V11.25ZM8.26369 6.41603L9.66995 4.30662L8.42188 3.47457L7.01561 5.58398L8.26369 6.41603ZM10.71 3.75H14.5693V2.25H10.71V3.75ZM15.6093 4.30662L17.0156 6.41603L18.2637 5.58398L16.8574 3.47457L15.6093 4.30662ZM14.5693 3.75C14.9872 3.75 15.3775 3.95888 15.6093 4.30662L16.8574 3.47457C16.3474 2.70953 15.4888 2.25 14.5693 2.25V3.75ZM9.66995 4.30662C9.90179 3.95888 10.2921 3.75 10.71 3.75V2.25C9.79054 2.25 8.93191 2.70953 8.42188 3.47457L9.66995 4.30662ZM21.8896 10V17H23.3896V10H21.8896ZM18.6396 20.25H6.63965V21.75H18.6396V20.25ZM3.38965 17V10H1.88965V17H3.38965ZM6.63965 20.25C4.84472 20.25 3.38965 18.7949 3.38965 17H1.88965C1.88965 19.6234 4.0163 21.75 6.63965 21.75V20.25ZM21.8896 17C21.8896 18.7949 20.4346 20.25 18.6396 20.25V21.75C21.263 21.75 23.3896 19.6234 23.3896 17H21.8896ZM18.6396 6.75C20.4346 6.75 21.8896 8.20508 21.8896 10H23.3896C23.3896 7.37665 21.263 5.25 18.6396 5.25V6.75ZM6.63965 5.25C4.0163 5.25 1.88965 7.37665 1.88965 10H3.38965C3.38965 8.20508 4.84472 6.75 6.63965 6.75V5.25ZM6.63965 6.75H7.63965V5.25H6.63965V6.75ZM18.6396 5.25H17.6396V6.75H18.6396V5.25Z" fill="#8488AA"/>
<circle cx="12.6396" cy="6" r="1" fill="#8488AA"/>
</svg>
