<svg width="65" height="65" viewBox="0 0 65 65" fill="none" xmlns="http://www.w3.org/2000/svg">
<g filter="url(#filter0_d_334_4538)">
<circle cx="32.3934" cy="28.622" r="17.3934" fill="white"/>
</g>
<g clip-path="url(#clip0_334_4538)">
<path d="M32.0707 43.4383C40.0758 43.4383 46.5652 36.9489 46.5652 28.9438C46.5652 20.9386 40.0758 14.4492 32.0707 14.4492C24.0656 14.4492 17.5762 20.9386 17.5762 28.9438C17.5762 36.9489 24.0656 43.4383 32.0707 43.4383Z" fill="#F0F0F0"/>
<path d="M17.5752 28.9435C17.5752 35.1757 21.5087 40.4885 27.0282 42.5366V15.3506C21.5087 17.3985 17.5752 22.7114 17.5752 28.9435Z" fill="#6DA544"/>
<path d="M46.5643 28.9435C46.5643 22.7114 42.6309 17.3985 37.1113 15.3506V42.5366C42.6309 40.4885 46.5643 35.1757 46.5643 28.9435Z" fill="#6DA544"/>
</g>
<defs>
<filter id="filter0_d_334_4538" x="0.505465" y="0.357614" width="63.7762" height="63.7762" filterUnits="userSpaceOnUse" color-interpolation-filters="sRGB">
<feFlood flood-opacity="0" result="BackgroundImageFix"/>
<feColorMatrix in="SourceAlpha" type="matrix" values="0 0 0 0 0 0 0 0 0 0 0 0 0 0 0 0 0 0 127 0" result="hardAlpha"/>
<feOffset dy="3.62363"/>
<feGaussianBlur stdDeviation="7.24727"/>
<feComposite in2="hardAlpha" operator="out"/>
<feColorMatrix type="matrix" values="0 0 0 0 0 0 0 0 0 0 0 0 0 0 0 0 0 0 0.05 0"/>
<feBlend mode="normal" in2="BackgroundImageFix" result="effect1_dropShadow_334_4538"/>
<feBlend mode="normal" in="SourceGraphic" in2="effect1_dropShadow_334_4538" result="shape"/>
</filter>
<clipPath id="clip0_334_4538">
<rect width="28.9891" height="28.9891" fill="white" transform="translate(17.5762 14.4492)"/>
</clipPath>
</defs>
</svg>
