<svg width="22" height="22" viewBox="0 0 22 22" fill="none" xmlns="http://www.w3.org/2000/svg">
<g clip-path="url(#clip0_334_1504)">
<path d="M3.37207 18.168H18.7564" stroke="#B05D33" stroke-width="0.887556"/>
<path d="M1.97972 19.1157C1.86418 19.2282 1.86418 19.4104 1.97972 19.5228C2.09526 19.6353 2.28258 19.6353 2.39812 19.5228L1.97972 19.1157ZM6.54007 15.4928C6.65557 15.3805 6.65557 15.1982 6.54007 15.0857C6.42451 14.9734 6.23719 14.9734 6.12165 15.0857L6.54007 15.4928ZM2.39812 19.5228L6.54007 15.4928L6.12165 15.0857L1.97972 19.1157L2.39812 19.5228Z" fill="#D67B4D"/>
<path d="M1.97972 19.1157C1.86418 19.2282 1.86418 19.4104 1.97972 19.5228C2.09526 19.6353 2.28258 19.6353 2.39812 19.5228L1.97972 19.1157ZM6.54007 15.4928C6.65557 15.3805 6.65557 15.1982 6.54007 15.0857C6.42451 14.9734 6.23719 14.9734 6.12165 15.0857L6.54007 15.4928ZM2.39812 19.5228L6.54007 15.4928L6.12165 15.0857L1.97972 19.1157L2.39812 19.5228Z" fill="#D67B4D"/>
<path d="M20.149 19.1157C20.2645 19.2282 20.2645 19.4104 20.149 19.5228C20.0334 19.6353 19.8461 19.6353 19.7305 19.5228L20.149 19.1157ZM15.5886 15.4928C15.4731 15.3805 15.4731 15.1982 15.5886 15.0857C15.7041 14.9734 15.8915 14.9734 16.007 15.0857L15.5886 15.4928ZM19.7305 19.5228L15.5886 15.4928L16.007 15.0857L20.149 19.1157L19.7305 19.5228Z" fill="#D67B4D"/>
<path d="M20.149 19.1157C20.2645 19.2282 20.2645 19.4104 20.149 19.5228C20.0334 19.6353 19.8461 19.6353 19.7305 19.5228L20.149 19.1157ZM15.5886 15.4928C15.4731 15.3805 15.4731 15.1982 15.5886 15.0857C15.7041 14.9734 15.8915 14.9734 16.007 15.0857L15.5886 15.4928ZM19.7305 19.5228L15.5886 15.4928L16.007 15.0857L20.149 19.1157L19.7305 19.5228Z" fill="#D67B4D"/>
<path fill-rule="evenodd" clip-rule="evenodd" d="M6.92229 2.76938C7.11951 2.66644 7.57317 2.33704 7.80985 1.84294C8.1057 1.22532 8.40155 0.916504 9.28911 0.916504H10.4725H12.2476C13.1352 0.916504 13.431 1.22532 13.7269 1.84294C13.9636 2.33704 14.4172 2.66644 14.6144 2.76938H16.3896C17.37 2.76938 18.1647 3.54264 18.1647 4.49651V11.8352C18.1647 15.0148 15.5155 17.5923 12.2476 17.5923H9.28911C6.02122 17.5923 3.37207 15.0148 3.37207 11.8352V4.49651C3.37207 3.54264 4.16682 2.76938 5.14718 2.76938H6.92229Z" fill="#42A8C3"/>
<path d="M12.2476 2.64358C12.2476 2.57538 12.2043 2.5055 12.1371 2.43842C11.7958 2.09819 11.2569 2.06787 10.7683 2.06787C10.2798 2.06787 9.72154 2.07158 9.39119 2.42183C9.32871 2.48803 9.28906 2.56195 9.28906 2.64358C9.28906 2.93144 9.28906 3.2193 9.65888 3.2193H11.8778C12.2476 3.2193 12.2476 2.93144 12.2476 2.64358Z" fill="white"/>
<path d="M5.73877 6.07819C5.73877 5.44227 6.2686 4.92676 6.92218 4.92676H14.6143C15.2679 4.92676 15.7977 5.44227 15.7977 6.07819V8.38104C15.7977 10.2888 14.2082 11.8353 12.2475 11.8353H9.28899C7.32826 11.8353 5.73877 10.2888 5.73877 8.38104V6.07819Z" fill="white"/>
<mask id="mask0_334_1504" style="mask-type:alpha" maskUnits="userSpaceOnUse" x="5" y="4" width="11" height="8">
<path d="M5.73877 6.07819C5.73877 5.44227 6.2686 4.92676 6.92218 4.92676H14.6143C15.2679 4.92676 15.7977 5.44227 15.7977 6.07819V8.38104C15.7977 10.2888 14.2082 11.8353 12.2475 11.8353H9.28899C7.32826 11.8353 5.73877 10.2888 5.73877 8.38104V6.07819Z" fill="white"/>
</mask>
<g mask="url(#mask0_334_1504)">
<path d="M14.9107 5.79033C14.9107 5.09947 13.826 4.92676 13.1357 4.92676H15.7984L15.7983 12.1232C13.826 12.2191 8.34283 12.1232 9.28956 12.1232C10.473 12.1232 12.5439 11.2596 13.4315 10.6839C14.2435 10.1572 14.9108 9.24461 14.9107 8.38104V5.79033Z" fill="#C3D3DB"/>
</g>
</g>
<defs>
<clipPath id="clip0_334_1504">
<rect width="21.3013" height="21.3013" fill="white" transform="translate(0.413574 0.30127)"/>
</clipPath>
</defs>
</svg>
