<svg width="24" height="24" viewBox="0 0 24 24" fill="none" xmlns="http://www.w3.org/2000/svg">
<g clip-path="url(#clip0_334_3527)">
<path d="M20.9296 6.062L14.8928 1.82785C13.2523 0.674071 10.7224 0.732298 9.14 1.96504L3.87324 6.07187C2.81831 6.89304 2 8.56498 2 9.89445V17.1399C2 18.4268 2.51021 19.6612 3.41859 20.5718C4.32696 21.4825 5.55924 21.995 6.84479 21.9968H18.1552C19.4392 21.9955 20.6703 21.4845 21.5785 20.5759C22.4867 19.6672 22.9979 18.4351 23 17.1497V10.0316C23 8.61335 22.092 6.8733 20.9296 6.062ZM17.6277 14.4316C17.6275 15.404 17.2415 16.3364 16.5547 17.024C15.8679 17.7116 14.9364 18.098 13.9651 18.0982H11.0349C10.0636 18.098 9.13214 17.7116 8.44532 17.024C7.75849 16.3364 7.37252 15.404 7.37225 14.4316V11.4983C7.37252 10.5259 7.75849 9.59345 8.44532 8.90588C9.13214 8.21831 10.0636 7.83192 11.0349 7.83165H13.9651C14.9364 7.83192 15.8679 8.21831 16.5547 8.90588C17.2415 9.59345 17.6275 10.5259 17.6277 11.4983V14.4316Z" fill="#FA8443"/>
<path d="M13.9649 7.83203H11.0347C9.01191 7.83203 7.37207 9.47364 7.37207 11.4987V14.432C7.37207 16.457 9.01191 18.0986 11.0347 18.0986H13.9649C15.9877 18.0986 17.6276 16.457 17.6276 14.432V11.4987C17.6276 9.47364 15.9877 7.83203 13.9649 7.83203Z" fill="white"/>
</g>
<defs>
<clipPath id="clip0_334_3527">
<rect width="21" height="21" fill="white" transform="translate(2 1)"/>
</clipPath>
</defs>
</svg>
