<svg width="21" height="22" viewBox="0 0 21 22" fill="none" xmlns="http://www.w3.org/2000/svg">
<path d="M19.1549 8.71883C19.1001 8.5575 18.9993 8.41573 18.8649 8.31104C18.7305 8.20635 18.5683 8.14332 18.3985 8.12973L13.4303 7.73496L11.2804 2.97594C11.212 2.82266 11.1006 2.69247 10.9598 2.60109C10.819 2.50971 10.6547 2.46103 10.4868 2.46094C10.319 2.46085 10.1546 2.50934 10.0137 2.60057C9.8728 2.6918 9.76129 2.82187 9.69265 2.97507L7.54277 7.73496L2.57461 8.12973C2.40768 8.14295 2.2481 8.20398 2.11496 8.30553C1.98182 8.40707 1.88075 8.54482 1.82384 8.7023C1.76694 8.85978 1.7566 9.03032 1.79408 9.19352C1.83156 9.35671 1.91526 9.50566 2.03518 9.62253L5.70662 13.2016L4.40815 18.8242C4.36872 18.9944 4.38136 19.1725 4.44442 19.3355C4.50748 19.4984 4.61805 19.6386 4.76179 19.7379C4.90552 19.8372 5.07579 19.891 5.25048 19.8923C5.42518 19.8937 5.59624 19.8425 5.74148 19.7454L10.4866 16.582L15.2316 19.7454C15.3801 19.8439 15.5551 19.8947 15.7333 19.8907C15.9114 19.8868 16.0841 19.8285 16.228 19.7235C16.372 19.6185 16.4804 19.472 16.5386 19.3036C16.5968 19.1352 16.6021 18.953 16.5536 18.7815L14.9597 13.2042L18.9127 9.64693C19.1715 9.41338 19.2665 9.04911 19.1549 8.71883Z" fill="#E77C40"/>
</svg>
