<svg width="40" height="40" viewBox="0 0 40 40" fill="none" xmlns="http://www.w3.org/2000/svg">
<path d="M19.9997 3.3335C10.8163 3.3335 3.33301 10.8168 3.33301 20.0002C3.33301 29.1835 10.8163 36.6668 19.9997 36.6668C29.183 36.6668 36.6663 29.1835 36.6663 20.0002C36.6663 10.8168 29.183 3.3335 19.9997 3.3335ZM26.6663 21.2502H21.2497V26.6668C21.2497 27.3502 20.683 27.9168 19.9997 27.9168C19.3163 27.9168 18.7497 27.3502 18.7497 26.6668V21.2502H13.333C12.6497 21.2502 12.083 20.6835 12.083 20.0002C12.083 19.3168 12.6497 18.7502 13.333 18.7502H18.7497V13.3335C18.7497 12.6502 19.3163 12.0835 19.9997 12.0835C20.683 12.0835 21.2497 12.6502 21.2497 13.3335V18.7502H26.6663C27.3497 18.7502 27.9163 19.3168 27.9163 20.0002C27.9163 20.6835 27.3497 21.2502 26.6663 21.2502Z" fill="#FA8443"/>
</svg>
