<svg width="18" height="17" viewBox="0 0 18 17" fill="none" xmlns="http://www.w3.org/2000/svg">
<g clip-path="url(#clip0_334_1591)">
<path d="M16.7037 0.123047C16.6127 0.123013 16.5229 0.144173 16.4414 0.184879L11.9988 2.40681L6.97512 0.173749C6.96691 0.170245 6.95753 0.169627 6.94874 0.166123C6.92614 0.157673 6.90302 0.150631 6.87956 0.145032C6.85623 0.138745 6.83253 0.133833 6.80862 0.130364C6.76101 0.126448 6.71316 0.126448 6.66558 0.130364C6.64167 0.133833 6.61797 0.138745 6.59465 0.145032C6.57119 0.150631 6.54807 0.157673 6.52547 0.166123C6.51667 0.169627 6.50729 0.170211 6.49908 0.173749L1.22276 2.51879C1.01095 2.61285 0.874477 2.82287 0.874512 3.0546V15.9523C0.874615 16.1506 0.974954 16.3355 1.14125 16.4436C1.30758 16.5519 1.51736 16.5686 1.69877 16.4881L6.73707 14.2486L11.7754 16.4881C11.7842 16.4916 11.7935 16.4881 11.8023 16.4934C11.9443 16.5569 12.1072 16.5533 12.2461 16.4835C12.2555 16.4794 12.266 16.4835 12.2754 16.477L16.9655 14.132C17.1642 14.0327 17.2898 13.8295 17.2897 13.6072V0.709591C17.2899 0.385798 17.0275 0.123184 16.7037 0.123047ZM6.15083 13.2262L2.04702 15.05V3.43569L6.15083 1.61182V13.2262ZM11.4272 15.05L7.32334 13.2262V1.61182L11.4272 3.43566V15.05ZM16.1172 13.2449L12.5997 15.0037V3.4169L16.1172 1.65813V13.2449Z" fill="#84829A"/>
</g>
<defs>
<clipPath id="clip0_334_1591">
<rect width="16.4155" height="16.4155" fill="white" transform="translate(0.873535 0.123047)"/>
</clipPath>
</defs>
</svg>
