<svg width="17" height="17" viewBox="0 0 17 17" fill="none" xmlns="http://www.w3.org/2000/svg">
<path d="M14.973 1.75302L7.56553 9.18787C7.48061 9.13867 7.39131 9.09745 7.29878 9.06475L2.40833 7.40952C2.26043 7.37246 2.12916 7.28704 2.03536 7.16683C1.94157 7.04663 1.89062 6.89853 1.89062 6.74606C1.89062 6.59359 1.94157 6.4455 2.03536 6.32529C2.12916 6.20509 2.26043 6.11967 2.40833 6.0826L14.5421 1.7667C14.6214 1.73977 14.7046 1.72591 14.7884 1.72566C14.851 1.72465 14.9134 1.73389 14.973 1.75302Z" fill="#84829A"/>
<path d="M15.4446 2.66919L11.1287 14.8166C11.0811 14.9582 10.9885 15.0803 10.865 15.1643C10.7415 15.2483 10.5939 15.2895 10.4447 15.2818C10.2939 15.2887 10.1449 15.2454 10.0212 15.1588C9.89749 15.0722 9.80591 14.9471 9.76075 14.803L8.13288 9.91252C8.10018 9.81999 8.05897 9.73069 8.00977 9.64577L15.4583 2.23828C15.5003 2.37964 15.4955 2.53078 15.4446 2.66919Z" fill="#84829A"/>
</svg>
