<svg width="16" height="14" viewBox="0 0 16 14" fill="none" xmlns="http://www.w3.org/2000/svg">
<path d="M14.7879 5.58106L14.7879 5.58105C14.3533 5.25881 13.8188 5.02194 13.2542 4.89415C13.1567 4.87221 13.0674 4.82298 12.9969 4.75223C12.9263 4.68146 12.8773 4.59207 12.8556 4.4945M14.7879 5.58106L3.75777 3.16096C3.75776 3.16098 3.75775 3.161 3.75774 3.16102M14.7879 5.58106C15.566 6.15748 15.9766 6.95282 15.9766 7.88066C15.9766 8.83727 15.5955 9.63966 14.8747 10.2006C14.2377 10.6959 13.3503 10.9697 12.375 10.9697H8.52344V6.25691L9.63062 7.36349C9.67939 7.41223 9.7373 7.45085 9.80103 7.47714C9.86477 7.50343 9.93307 7.51687 10.002 7.51668C10.071 7.5165 10.1392 7.5027 10.2028 7.47608C10.2664 7.44945 10.3241 7.41052 10.3726 7.36153C10.5776 7.15455 10.565 6.81758 10.3603 6.61254L10.3603 6.61252L8.37001 4.62315L8.35344 4.63973L8.37 4.62315C8.27185 4.52506 8.13876 4.46996 8 4.46996C7.86124 4.46996 7.72815 4.52506 7.63 4.62315L7.62999 4.62315L5.63968 6.61315C5.44114 6.81169 5.4221 7.13624 5.61236 7.34519C5.65998 7.39765 5.71776 7.43989 5.7822 7.46936C5.84664 7.49884 5.9164 7.51492 5.98725 7.51663C6.05809 7.51834 6.12855 7.50565 6.19434 7.47933C6.26013 7.453 6.3199 7.41359 6.37001 7.36349L7.47656 6.25694V10.9697H4.25C3.12162 10.9697 2.07034 10.598 1.29 9.92417C0.473229 9.21733 0.0234375 8.24003 0.0234375 7.16816C0.0234375 6.10768 0.441194 5.1794 1.23175 4.48075C1.80454 3.97598 2.55534 3.61918 3.38776 3.45114C3.4678 3.43498 3.54294 3.40032 3.60718 3.34993C3.67141 3.29956 3.72297 3.23487 3.75774 3.16102M14.7879 5.58106L3.75774 3.16102M12.8556 4.4945L12.8784 4.48941L12.8556 4.49455C12.8556 4.49453 12.8556 4.49452 12.8556 4.4945ZM12.8556 4.4945C12.6128 3.4129 12.0904 2.48603 11.3229 1.78389L11.3229 1.78388C10.4308 0.966427 9.25092 0.516602 8 0.516602C6.90032 0.516602 5.88522 0.861231 5.06553 1.51307M5.06553 1.51307C5.06553 1.51307 5.06553 1.51306 5.06554 1.51306L5.05095 1.49475L5.06553 1.51307ZM5.06553 1.51307C4.50983 1.95567 4.06254 2.51931 3.75774 3.16102M7.52344 11.0166H8.47656V13.0063C8.47656 13.1327 8.42635 13.2539 8.33698 13.3433C8.24761 13.4326 8.12639 13.4829 8 13.4829C7.87361 13.4829 7.75239 13.4326 7.66302 13.3433C7.57365 13.2539 7.52344 13.1327 7.52344 13.0063V11.0166Z" fill="#FA8443" stroke="#292D32" stroke-width="0.046875"/>
</svg>
